<?xml version="1.0" standalone="no"?>
<!DOCTYPE svg PUBLIC "-//W3C//DTD SVG 20010904//EN"
 "http://www.w3.org/TR/2001/REC-SVG-20010904/DTD/svg10.dtd">
<svg version="1.0" xmlns="http://www.w3.org/2000/svg"
 width="2160.000000pt" height="2160.000000pt" viewBox="0 0 2160.000000 2160.000000"
 preserveAspectRatio="xMidYMid meet">
<metadata>
Created by potrace 1.11, written by Peter Selinger 2001-2013
</metadata>
<g transform="translate(0.000000,2160.000000) scale(0.100000,-0.100000)"
fill="#000000" stroke="none">
<path d="M0 10800 l0 -10800 2635 0 c1623 0 2635 4 2635 9 0 5 -9 13 -20 16
-21 7 -26 20 -12 29 5 3 8 27 6 53 -1 26 -2 820 -3 1763 -1 1498 1 1721 14
1764 12 40 15 134 17 510 l3 461 5 -465 5 -465 3 483 2 482 95 0 96 0 -3 152
c-3 143 -4 152 -23 154 -144 19 -277 129 -336 279 l-24 60 -3 785 c-3 715 -2
791 14 850 23 86 43 126 96 181 60 65 103 94 184 126 l69 28 785 0 785 0 66
-27 c37 -14 85 -38 107 -52 49 -31 127 -120 156 -178 21 -43 21 -47 21 -898
l0 -855 -24 -55 c-46 -106 -207 -232 -311 -243 l-35 -4 -3 -152 -3 -151 77 0
c92 0 385 27 434 41 68 18 114 51 122 89 4 19 7 1190 8 2601 0 2036 -2 2575
-12 2604 -10 29 -24 43 -58 61 -41 21 -67 25 -238 34 -107 5 -201 14 -211 20
-10 5 -22 6 -26 2 -5 -4 -6 -2 -2 3 3 6 2 17 -3 25 -7 11 -13 11 -34 -3 -14
-9 -35 -17 -47 -17 l-22 0 22 19 c13 12 30 17 43 13 21 -5 21 -5 2 26 -10 18
-26 35 -36 38 -10 3 -18 14 -18 24 0 10 -5 22 -10 25 -10 6 -24 30 -87 149
-13 25 -22 34 -22 23 -1 -31 -21 -8 -21 24 0 38 -27 102 -39 94 -6 -3 -8 -12
-5 -19 3 -8 1 -17 -4 -20 -5 -3 -10 0 -9 7 1 37 -4 57 -16 57 -9 0 -12 22 -12
80 l0 79 17 -62 c10 -34 18 -72 18 -84 0 -22 10 -30 22 -17 3 3 -5 44 -18 92
-22 80 -24 105 -24 312 0 191 3 236 20 300 11 41 20 91 20 111 0 20 7 49 15
66 8 16 19 53 25 82 5 28 14 60 20 71 5 10 10 28 10 40 0 11 7 23 15 26 8 4
15 12 15 20 0 8 8 22 17 32 10 9 23 29 30 43 11 26 41 63 97 120 23 24 26 32
16 44 -7 9 -9 19 -5 23 4 4 10 1 12 -5 6 -17 28 -16 42 1 10 11 9 16 -5 24
-25 14 1 25 27 12 16 -9 24 -8 37 2 9 8 37 20 61 27 31 9 40 15 31 21 -18 11
48 24 95 18 24 -3 35 0 35 9 0 7 -11 13 -26 13 -21 0 -25 3 -18 18 4 9 7 27 7
40 -1 20 8 27 30 23 5 -1 7 219 5 489 -2 269 1 491 5 493 7 2 9 679 3 884 0
24 4 45 10 47 7 3 40 -2 75 -9 105 -23 278 -57 384 -76 55 -10 147 -27 205
-39 58 -11 150 -29 205 -39 55 -10 170 -32 255 -49 85 -17 216 -42 290 -56
370 -69 524 -98 615 -117 55 -11 150 -29 210 -40 204 -36 379 -69 475 -91 52
-12 106 -22 119 -22 22 -1 28 -13 67 -126 50 -149 177 -548 239 -750 25 -80
49 -152 54 -161 5 -9 25 -69 45 -135 20 -65 60 -191 89 -279 30 -88 57 -173
61 -188 6 -26 -3 -38 -96 -134 -57 -57 -150 -154 -208 -213 -482 -497 -579
-597 -661 -684 -127 -134 -214 -223 -412 -426 -93 -94 -166 -174 -163 -177 3
-3 11 -1 18 4 12 9 112 62 393 208 281 146 343 178 500 259 94 49 184 96 200
104 17 9 32 18 35 21 3 4 93 51 200 105 107 55 258 133 335 173 76 40 145 73
152 73 7 0 35 -14 64 -30 28 -17 79 -44 113 -60 33 -16 99 -52 146 -79 47 -28
90 -51 97 -51 6 0 13 -3 15 -7 3 -8 56 -37 166 -92 26 -13 49 -27 52 -31 3 -4
16 -11 30 -15 14 -4 32 -13 40 -20 8 -7 47 -30 87 -51 185 -100 253 -136 313
-166 36 -17 103 -54 150 -81 47 -28 135 -75 195 -107 61 -31 160 -85 221 -119
61 -33 117 -61 123 -61 7 0 -8 20 -33 45 -25 25 -46 48 -46 51 0 4 -35 41 -78
83 -43 42 -104 105 -136 141 -53 58 -156 167 -487 514 -52 56 -129 137 -170
180 -41 43 -90 96 -109 116 -19 20 -89 94 -155 165 -66 70 -164 173 -217 229
-70 72 -98 108 -98 126 0 14 29 113 64 220 35 107 82 251 104 320 55 172 211
653 291 900 l67 205 35 2 c19 2 72 12 118 23 46 12 102 23 125 26 22 4 61 10
86 15 25 6 79 16 121 23 42 8 119 23 170 35 107 23 330 68 434 86 96 17 228
43 300 60 33 7 80 16 105 20 25 3 86 15 135 25 50 10 117 24 150 30 135 25
254 49 325 63 41 9 161 32 265 52 206 39 383 75 403 82 9 4 12 -93 12 -466 0
-408 2 -471 15 -471 11 0 12 -5 5 -26 -14 -35 -12 -108 2 -122 9 -9 9 -12 0
-12 -9 0 -12 -98 -12 -410 0 -344 2 -410 14 -410 8 0 16 -7 20 -15 4 -10 -1
-15 -14 -15 -14 0 -20 -7 -20 -21 0 -16 4 -19 20 -14 11 4 35 3 52 -1 l33 -7
-45 -18 -45 -18 38 0 c21 -1 55 -10 76 -20 23 -12 47 -17 61 -14 19 5 22 3 17
-10 -4 -11 1 -18 16 -23 28 -8 100 -66 154 -124 l41 -44 21 24 c23 28 24 24
12 -37 -6 -32 -5 -46 5 -54 8 -6 14 -17 14 -24 0 -7 11 -24 25 -39 14 -15 25
-34 25 -43 0 -9 9 -31 21 -49 13 -21 18 -41 14 -54 -8 -24 11 -87 34 -114 9
-11 10 -16 4 -12 -15 9 -17 -3 -3 -24 9 -13 10 -13 11 0 1 25 18 -22 17 -50
l0 -25 -8 25 c-14 44 -11 -6 5 -78 9 -44 15 -144 18 -292 2 -124 0 -205 -3
-180 -4 25 -8 43 -9 40 -4 -16 -31 -177 -31 -190 0 -13 1 -13 10 0 5 8 10 25
10 38 0 13 4 21 9 17 6 -3 6 -18 0 -38 -13 -47 -12 -90 4 -81 8 5 8 3 -2 -9
-14 -18 -33 -14 -30 6 1 7 1 21 0 32 -2 14 -6 10 -15 -15 -22 -57 -56 -174
-56 -193 0 -9 -6 -17 -12 -17 -7 0 -27 -31 -45 -68 -17 -37 -42 -79 -56 -94
-14 -15 -27 -30 -28 -35 -2 -4 -27 -29 -55 -55 -29 -26 -50 -49 -47 -51 2 -3
-10 -10 -28 -16 -18 -6 -40 -18 -48 -26 -9 -7 -34 -29 -55 -47 -21 -18 -51
-45 -65 -59 -14 -14 -42 -34 -61 -44 -35 -18 -132 -93 -138 -107 -2 -5 -12 -8
-23 -8 -10 0 -19 -4 -19 -10 0 -5 5 -10 10 -10 6 0 10 -4 10 -9 0 -6 -16 -7
-35 -4 -48 8 -44 -8 8 -30 23 -11 56 -25 72 -33 90 -42 116 -51 148 -53 9 0
17 -7 17 -15 0 -7 21 -21 48 -31 65 -25 194 -94 207 -112 6 -8 17 -13 25 -11
8 2 14 -3 12 -10 -1 -7 11 -15 27 -18 16 -4 32 -12 35 -20 3 -8 12 -14 20 -14
7 0 16 -6 19 -13 2 -6 23 -18 46 -25 37 -11 69 -33 123 -85 20 -19 48 -23 48
-7 0 6 10 10 23 10 20 -1 21 -2 4 -14 -22 -17 -22 -20 7 -49 33 -34 54 -39 65
-19 6 9 11 15 11 12 8 -34 7 -38 -7 -33 -27 10 -9 -17 22 -35 16 -9 36 -24 45
-33 8 -9 36 -33 63 -54 26 -20 47 -44 47 -51 0 -8 8 -14 18 -14 10 0 25 -9 35
-20 20 -24 30 -25 47 -5 16 20 41 20 34 0 -4 -8 -12 -15 -19 -15 -39 0 -10
-50 69 -119 54 -47 96 -90 96 -99 0 -5 11 -14 25 -20 14 -6 25 -19 25 -28 0
-8 14 -30 32 -47 17 -18 44 -49 59 -70 25 -34 29 -36 38 -20 9 17 10 17 16 0
4 -9 2 -24 -5 -32 -10 -12 -7 -18 19 -32 19 -11 31 -26 31 -39 0 -11 9 -29 20
-39 11 -10 20 -23 20 -30 0 -7 11 -24 25 -39 14 -15 34 -45 45 -66 11 -21 26
-43 33 -47 8 -4 20 -21 29 -38 47 -94 110 -209 132 -242 14 -21 26 -47 26 -59
0 -12 7 -27 15 -34 8 -7 15 -23 15 -35 0 -12 8 -33 18 -46 17 -23 62 -150 62
-177 0 -7 9 -29 20 -49 11 -21 20 -33 20 -28 0 6 5 3 10 -5 8 -12 10 -9 10 13
0 15 5 27 10 27 14 0 13 -53 -1 -67 -13 -13 -4 -83 11 -83 5 0 14 8 19 18 9
15 10 15 11 -5 0 -12 -5 -23 -11 -25 -9 -3 -8 -18 4 -53 9 -28 16 -63 15 -80
0 -16 6 -57 13 -90 10 -50 14 -56 19 -35 6 23 8 21 15 -15 4 -22 11 -47 16
-56 13 -26 23 -141 12 -148 -14 -8 -4 -83 10 -74 5 3 7 1 4 -4 -8 -12 12 -235
22 -245 3 -4 4 -42 1 -85 -3 -43 -4 -1517 -2 -3275 l2 -3198 2365 0 c2096 0
2365 2 2365 15 0 13 -264 15 -2319 15 -1276 0 -2326 3 -2335 6 -20 8 -21 34
-1 34 8 0 15 5 15 10 0 7 780 10 2320 10 l2320 0 0 10730 0 10730 -10717 1
c-5895 1 -10725 1 -10733 0 -13 -2 -13 -1 0 8 10 7 3420 11 10733 11 9519 0
10717 2 10717 15 0 13 -1207 15 -10800 15 l-10800 0 0 -10800z m65 10761 c3
-5 1 -12 -5 -16 -5 -3 -10 -15 -10 -26 0 -34 -16 -20 -18 16 -2 25 1 35 12 35
8 0 17 -4 21 -9z m55 5 c0 -2 -3 -11 -6 -20 -5 -12 -9 -13 -19 -3 -7 7 -11 15
-8 20 4 7 33 10 33 3z m-88 -222 c-2 -55 -12 -54 -12 1 0 27 3 45 7 42 3 -4 6
-23 5 -43z m55 -131 c-2 -16 -4 -5 -4 22 0 28 2 40 4 28 2 -13 2 -35 0 -50z
m-43 -21055 c5 -11 4 -18 -2 -18 -5 0 -12 10 -16 23 -3 12 -5 4765 -3 10562
l2 10540 5 -10545 c3 -5825 9 -10553 14 -10562z m43 5240 c-1 -2884 -2 -525
-2 5242 0 5767 1 8126 2 5243 2 -2884 2 -7602 0 -10485z m10746 14055 c-7 -2
-19 -2 -25 0 -7 3 -2 5 12 5 14 0 19 -2 13 -5z m50 0 c-7 -2 -19 -2 -25 0 -7
3 -2 5 12 5 14 0 19 -2 13 -5z m727 -3 c0 -5 -4 -10 -10 -10 -5 0 -10 5 -10
10 0 6 5 10 10 10 6 0 10 -4 10 -10z m-1020 -81 c0 -5 -7 -9 -15 -9 -9 0 -12
6 -9 15 6 15 24 11 24 -6z m12 -401 c2 -196 0 -351 -4 -345 -4 7 -7 174 -7
372 1 198 3 353 5 345 2 -8 4 -175 6 -372z m1063 -436 c-8 -49 7 -62 62 -57
29 2 43 -1 47 -11 3 -8 16 -14 30 -14 14 0 28 -5 31 -10 4 -6 21 -8 38 -5 18
3 46 1 62 -4 23 -7 25 -10 10 -11 -13 -1 -6 -7 20 -15 22 -7 54 -11 71 -8 18
3 35 0 38 -6 4 -6 1 -11 -6 -12 -26 -1 68 -31 97 -31 16 1 34 -3 40 -7 5 -5
33 -16 60 -26 28 -10 55 -23 60 -29 12 -13 75 -36 99 -36 9 0 14 -4 11 -10 -3
-5 -1 -10 6 -10 7 0 52 -20 100 -45 94 -48 112 -53 103 -30 -7 16 11 21 21 5
3 -5 13 -7 23 -4 9 2 7 -1 -5 -7 -21 -11 -20 -12 23 -45 24 -19 67 -46 94 -61
28 -16 61 -33 72 -40 12 -6 25 -19 30 -27 5 -9 20 -16 33 -16 18 0 25 -5 25
-19 0 -11 9 -23 21 -26 11 -4 35 -19 52 -34 45 -38 96 -70 79 -49 -9 12 -10
18 -2 23 17 11 40 -3 34 -19 -3 -9 3 -27 14 -41 19 -24 21 -25 38 -8 17 17 17
16 11 -14 -5 -25 -3 -33 12 -38 10 -3 39 -25 65 -50 25 -25 49 -45 52 -45 3 0
28 -24 57 -52 29 -29 68 -67 87 -83 19 -17 47 -46 62 -65 14 -19 49 -59 77
-88 28 -29 51 -57 51 -62 0 -16 28 -11 38 6 14 25 25 -1 12 -26 -9 -17 -5 -28
21 -65 18 -25 38 -45 46 -45 7 0 13 -5 13 -10 0 -19 81 -121 103 -130 12 -5
18 -9 13 -9 -5 -1 -2 -9 7 -18 8 -10 15 -21 14 -24 -1 -4 10 -26 26 -49 15
-23 27 -46 27 -51 0 -4 9 -13 20 -19 12 -6 20 -21 20 -35 0 -13 6 -28 14 -32
7 -4 18 -18 25 -30 11 -22 16 -23 183 -23 94 0 168 -3 165 -7 -4 -3 0 -14 8
-23 8 -9 27 -57 40 -106 14 -49 31 -107 37 -129 l12 -40 6 45 c3 25 8 40 13
33 4 -6 5 -18 2 -25 -3 -8 -1 -28 5 -44 7 -17 8 -30 2 -32 -6 -2 -8 -11 -7
-20 22 -116 29 -141 36 -137 8 6 15 -12 23 -57 3 -16 0 -28 -5 -28 -5 0 -9 10
-10 23 0 12 -3 17 -5 10 -3 -6 2 -31 10 -55 8 -24 15 -34 16 -24 1 46 14 0 16
-57 3 -74 28 -205 42 -219 6 -6 8 -17 5 -24 -5 -14 12 -37 37 -47 8 -3 2 -5
-15 -5 -44 1 -174 -31 -220 -55 -56 -28 -133 -112 -164 -177 -19 -42 -27 -77
-31 -147 -3 -50 -7 -93 -10 -95 -3 -2 -1535 -1 -3405 2 -3457 5 -3460 5 -3442
38 3 4 1 61 -4 126 -5 72 -4 126 1 135 7 11 10 0 10 -39 1 -30 5 -75 9 -100
l7 -45 9 48 c8 49 2 163 -11 205 -4 13 -2 22 5 22 6 0 11 -12 11 -27 0 -85 31
68 34 172 4 106 5 112 16 95 8 -12 10 -8 12 15 1 17 1 41 0 55 -3 37 19 121
29 114 5 -3 9 6 9 20 0 14 5 28 11 32 7 4 9 27 6 63 -3 31 -2 63 3 71 8 12 10
9 11 -10 1 -25 3 -20 30 105 7 28 16 59 22 70 6 11 10 32 8 46 -1 15 5 34 14
43 9 9 13 16 8 16 -4 0 -3 4 4 8 6 4 18 30 25 57 7 28 22 63 34 79 l23 30 143
-3 c142 -2 178 2 178 21 0 9 28 48 63 89 8 9 27 39 42 68 16 28 32 51 37 51 4
0 8 6 8 14 0 7 12 27 28 44 15 17 47 57 72 88 25 32 54 68 66 80 12 12 31 38
43 58 13 20 27 36 32 36 5 0 9 7 9 15 0 13 44 61 103 111 16 13 25 29 22 35
-4 5 1 17 11 24 28 21 40 18 19 -5 -10 -11 -13 -20 -8 -20 6 0 19 12 28 28 29
44 80 98 116 121 34 22 109 106 87 98 -13 -4 -18 -1 -18 9 0 12 6 15 25 10 24
-6 25 -6 8 14 -18 21 -43 27 -43 10 0 -5 -4 -10 -10 -10 -19 0 -10 17 17 31
20 11 27 11 30 2 3 -7 13 -13 24 -13 10 0 19 -4 19 -10 0 -5 5 -10 10 -10 6 0
10 8 8 18 -2 10 3 17 12 17 24 1 40 15 33 30 -3 10 2 15 16 15 12 0 29 9 38
20 10 11 23 20 31 20 7 0 15 7 18 15 3 8 20 22 37 31 18 9 48 25 67 35 28 14
31 18 14 19 -30 0 -50 25 -28 34 10 4 22 2 28 -4 15 -15 43 -12 50 7 4 9 1 20
-6 25 -7 4 -10 8 -5 8 4 0 16 -5 27 -12 16 -10 23 -9 42 8 13 12 51 36 86 55
38 20 60 39 57 46 -3 8 4 13 20 13 13 0 63 20 112 45 48 25 111 54 138 64 28
11 49 24 48 29 -1 5 17 15 40 21 23 7 56 21 73 30 29 18 155 62 184 66 54 7
133 31 137 41 3 7 21 18 40 25 23 7 31 14 23 19 -10 6 -10 9 0 15 7 4 15 3 19
-3 16 -26 250 -5 311 28 12 6 20 21 20 35 0 14 5 25 11 25 6 0 9 -8 6 -17 -2
-10 3 -30 10 -46 11 -22 13 -202 12 -1015 -2 -1075 -6 -1012 55 -1048 29 -18
58 -19 431 -19 220 0 412 3 427 7 14 5 40 20 57 34 l31 26 0 1018 c0 638 4
1028 10 1044 14 38 23 31 15 -12z m-93 -34 c-9 -20 -11 -18 -11 22 0 40 2 42
11 23 8 -17 8 -29 0 -45z m-1009 11 c-5 -5 -43 -15 -84 -20 -40 -6 -81 -15
-91 -20 -10 -6 -19 -5 -23 1 -3 5 -16 10 -28 11 -38 1 -4 9 99 23 131 18 140
18 127 5z m1246 -15 c25 -8 61 -14 80 -15 20 0 45 -4 56 -9 14 -6 2 -9 -42 -9
-35 -1 -63 3 -63 8 0 5 -18 12 -40 15 -22 3 -58 9 -80 12 -22 3 -40 9 -40 14
0 11 74 2 129 -16z m-1541 9 c-16 -2 -28 -9 -28 -14 0 -5 -7 -9 -15 -9 -16 0
-20 12 -8 23 3 4 22 6 42 6 30 -2 32 -3 9 -6z m1727 -43 c-3 -5 -12 -10 -18
-10 -7 0 -6 4 3 10 19 12 23 12 15 0z m-439 -46 c-4 -9 -9 -15 -11 -12 -3 3
-3 13 1 22 4 9 9 15 11 12 3 -3 3 -13 -1 -22z m604 -44 c0 -5 -5 -10 -11 -10
-5 0 -7 5 -4 10 3 6 8 10 11 10 2 0 4 -4 4 -10z m290 0 c12 -8 9 -10 -12 -10
-15 0 -30 5 -33 10 -8 13 25 13 45 0z m-2590 -9 c0 -17 -15 -19 -28 -5 -11 12
-9 14 8 14 11 0 20 -4 20 -9z m-70 -41 c0 -5 -9 -14 -19 -19 -16 -9 -18 -8
-14 9 5 20 33 29 33 10z m2595 -10 c15 -7 10 -9 -22 -9 -24 -1 -43 4 -43 9 0
12 37 12 65 0z m-2645 -50 c0 -5 -5 -10 -11 -10 -5 0 -7 5 -4 10 3 6 8 10 11
10 2 0 4 -4 4 -10z m2740 -5 c0 -8 -7 -15 -15 -15 -8 0 -15 7 -15 15 0 8 7 15
15 15 8 0 15 -7 15 -15z m-2837 -32 c-7 -2 -19 -2 -25 0 -7 3 -2 5 12 5 14 0
19 -2 13 -5z m2965 -29 c-4 -3 -17 -2 -30 2 -22 7 -22 7 -3 14 20 8 44 -4 33
-16z m-3093 -14 c3 -5 -11 -16 -31 -25 -42 -17 -68 -20 -39 -3 11 6 22 14 25
18 3 4 12 10 20 13 8 3 16 6 17 6 1 1 5 -3 8 -9z m3242 -16 c-3 -3 -12 -4 -19
-1 -8 3 -5 6 6 6 11 1 17 -2 13 -5z m38 -62 c0 -18 -20 -15 -23 4 -3 10 1 15
10 12 7 -3 13 -10 13 -16z m-3375 -2 c0 -5 -4 -10 -10 -10 -5 0 -10 5 -10 10
0 6 5 10 10 10 6 0 10 -4 10 -10z m-175 -30 c-3 -5 -15 -10 -25 -10 -10 0 -22
5 -25 10 -4 6 7 10 25 10 18 0 29 -4 25 -10z m3715 2 c0 -14 -11 -21 -26 -15
-8 3 -11 9 -8 14 7 11 34 12 34 1z m-3655 -21 c6 -10 -25 -31 -44 -31 -16 0
-9 24 9 32 21 10 28 9 35 -1z m-121 -17 c4 -11 1 -14 -11 -12 -9 2 -18 9 -21
16 -6 18 25 15 32 -4z m3738 -36 c-9 -9 -15 -9 -24 0 -10 10 -10 15 2 22 20
12 38 -6 22 -22z m-3794 -76 c-16 -9 -28 -20 -28 -25 0 -4 -5 -5 -11 -1 -11 6
35 42 56 43 6 0 -2 -7 -17 -17z m3937 -22 c10 -11 13 -20 7 -20 -7 0 -12 5
-12 10 0 6 -9 10 -20 10 -11 0 -20 5 -20 10 0 17 26 11 45 -10z m-4050 -50 c3
-5 -1 -10 -9 -10 -9 0 -16 5 -16 10 0 6 4 10 9 10 6 0 13 -4 16 -10z m4196
-27 c-8 -15 -10 -15 -11 -2 0 17 10 32 18 25 2 -3 -1 -13 -7 -23z m69 -83 c10
-19 10 -20 -9 -8 -22 13 -28 28 -11 28 5 0 14 -9 20 -20z m160 15 c0 -9 -40
-45 -50 -45 -19 0 -10 27 13 38 25 12 37 14 37 7z m-80 -77 c0 -24 -18 -19
-37 9 -13 19 -12 20 12 16 17 -4 25 -12 25 -25z m-4580 -63 c-7 -8 -17 -15
-22 -15 -6 0 -5 7 2 15 7 8 17 15 22 15 6 0 5 -7 -2 -15z m-50 -23 c0 -4 -13
-16 -30 -25 -38 -23 -40 -8 -2 15 32 20 32 20 32 10z m4705 -2 c3 -5 2 -10 -4
-10 -5 0 -13 5 -16 10 -3 6 -2 10 4 10 5 0 13 -4 16 -10z m160 -29 c3 -5 1
-12 -5 -16 -5 -3 -10 1 -10 9 0 18 6 21 15 7z m-4935 -36 c0 -8 -7 -15 -15
-15 -9 0 -12 6 -9 15 4 8 10 15 15 15 5 0 9 -7 9 -15z m4885 -5 c10 -11 16
-23 12 -26 -9 -9 -47 16 -47 31 0 21 14 19 35 -5z m113 -122 c-6 -18 -28 -21
-28 -4 0 9 7 16 16 16 9 0 14 -5 12 -12z m102 -49 c0 -10 -4 -19 -10 -19 -5 0
-10 12 -10 26 0 14 4 23 10 19 6 -3 10 -15 10 -26z m-5384 -130 c10 -17 -13
-36 -27 -22 -12 12 -4 33 11 33 5 0 12 -5 16 -11z m5474 -52 c0 -10 5 -15 10
-12 6 3 10 -2 10 -12 0 -11 5 -24 12 -31 6 -6 9 -15 5 -19 -15 -14 -73 90 -61
109 8 13 24 -10 24 -35z m64 8 c-4 -8 -8 -15 -10 -15 -2 0 -4 7 -4 15 0 8 4
15 10 15 5 0 7 -7 4 -15z m-5580 -25 c-6 -6 -10 -3 -10 10 0 13 4 16 10 10 7
-7 7 -13 0 -20z m-44 -39 c0 -5 -8 -11 -18 -13 -10 -3 -29 -28 -42 -57 -27
-55 -34 -61 -45 -34 -4 11 1 23 12 33 11 8 28 30 38 48 17 29 55 45 55 23z
m-110 -141 c0 -5 -5 -10 -11 -10 -5 0 -7 5 -4 10 3 6 8 10 11 10 2 0 4 -4 4
-10z m-20 -50 c0 -5 -7 -10 -16 -10 -8 0 -12 5 -9 10 3 6 10 10 16 10 5 0 9
-4 9 -10z m5860 -6 c0 -8 -4 -12 -10 -9 -5 3 -10 10 -10 16 0 5 5 9 10 9 6 0
10 -7 10 -16z m-6003 -51 c-4 -17 -4 -17 -12 0 -4 9 -4 25 0 35 8 16 8 16 12
0 3 -10 3 -26 0 -35z m6029 -10 c-11 -11 -19 6 -11 24 8 17 8 17 12 0 3 -10 2
-21 -1 -24z m-5962 -27 c-9 -28 -13 -31 -24 -20 -14 14 -3 41 16 41 10 0 12
-7 8 -21z m5996 -31 c0 -8 -2 -15 -4 -15 -2 0 -6 7 -10 15 -3 8 -1 15 4 15 6
0 10 -7 10 -15z m395 -73 c-9 -9 -25 19 -25 45 0 37 25 33 28 -5 2 -19 1 -37
-3 -40z m-6535 36 c52 1 70 -1 60 -8 -21 -13 -147 -13 -173 1 -12 7 -35 12
-52 11 -24 0 -26 2 -10 7 11 5 38 3 60 -3 22 -6 74 -9 115 -8z m6592 -13 c-6
-34 -12 -32 -12 6 0 16 4 28 9 25 4 -3 6 -17 3 -31z m-6479 18 c-7 -2 -19 -2
-25 0 -7 3 -2 5 12 5 14 0 19 -2 13 -5z m-357 -29 c-4 -9 -9 -15 -11 -12 -3 3
-3 13 1 22 4 9 9 15 11 12 3 -3 3 -13 -1 -22z m6627 9 c-46 -2 -120 -2 -165 0
-46 1 -9 3 82 3 91 0 128 -2 83 -3z m228 -126 c-8 -8 -11 -6 -11 5 0 9 -5 18
-12 20 -7 3 -9 12 -4 24 7 17 9 17 23 -10 11 -20 12 -31 4 -39z m-51 1 c0 -23
-16 -16 -23 11 -3 14 -1 18 9 14 8 -3 14 -14 14 -25z m-6860 14 c0 -13 -12
-22 -22 -16 -10 6 -1 24 13 24 5 0 9 -4 9 -8z m6887 -104 c-3 -8 -6 -5 -6 6
-1 11 2 17 5 13 3 -3 4 -12 1 -19z m-6967 -75 c0 -22 -2 -25 -10 -13 -13 20
-13 40 0 40 6 0 10 -12 10 -27z m3155 17 c3 -5 1 -10 -4 -10 -6 0 -11 5 -11
10 0 6 2 10 4 10 3 0 8 -4 11 -10z m855 0 c0 -5 -4 -10 -10 -10 -5 0 -10 5
-10 10 0 6 5 10 10 10 6 0 10 -4 10 -10z m-4030 -68 c0 -7 -4 -10 -10 -7 -5 3
-10 16 -10 28 0 18 2 19 10 7 5 -8 10 -21 10 -28z m60 6 c0 -19 -2 -20 -10 -8
-8 12 -10 12 -10 1 0 -8 -3 -12 -6 -8 -9 9 3 37 16 37 5 0 10 -10 10 -22z
m-34 -63 c4 -8 2 -21 -4 -28 -6 -6 -12 -28 -14 -47 -3 -20 -5 -8 -5 28 -1 58
10 81 23 47z m7134 -39 c0 -8 -4 -18 -10 -21 -5 -3 -10 3 -10 14 0 12 5 21 10
21 6 0 10 -6 10 -14z m-7150 -130 c0 -3 -4 -8 -10 -11 -5 -3 -10 -1 -10 4 0 6
5 11 10 11 6 0 10 -2 10 -4z m7150 -123 c-11 -17 -11 -17 -6 0 3 10 6 24 7 30
0 9 2 9 5 0 3 -7 0 -20 -6 -30z m-53 -90 c-3 -10 -5 -2 -5 17 0 19 2 27 5 18
2 -10 2 -26 0 -35z m10 -55 c-3 -7 -5 -2 -5 12 0 14 2 19 5 13 2 -7 2 -19 0
-25z m-7180 -125 c-3 -10 -5 -2 -5 17 0 19 2 27 5 18 2 -10 2 -26 0 -35z
m7267 17 c-6 -6 -21 -6 -39 -1 -30 9 -30 9 10 10 25 1 36 -2 29 -9z m-7347
-165 c-5 -33 -27 54 -26 105 1 45 1 45 15 -20 8 -36 13 -74 11 -85z m7413 119
c13 -14 12 -15 -11 -9 -14 3 -34 7 -44 9 -10 2 -21 9 -23 16 -6 18 57 5 78
-16z m68 -38 c3 -12 -1 -17 -10 -14 -7 3 -15 13 -16 22 -3 12 1 17 10 14 7 -3
15 -13 16 -22z m67 -47 c10 -15 -1 -23 -20 -15 -9 3 -13 10 -10 16 8 13 22 13
30 -1z m66 -81 c15 -27 -6 -29 -31 -3 -15 16 -20 30 -16 42 7 17 8 17 22 -2 9
-11 20 -28 25 -37z m29 -89 c0 -10 -4 -19 -10 -19 -5 0 -10 12 -10 26 0 14 4
23 10 19 6 -3 10 -15 10 -26z m13 -137 c-6 -4 -13 -16 -16 -27 -3 -12 -5 -7
-6 15 0 19 2 46 6 60 7 25 7 24 17 -8 6 -23 6 -36 -1 -40z m-8253 -17 c0 -8
-4 -15 -8 -15 -5 0 -9 7 -9 15 0 8 4 15 9 15 4 0 8 -7 8 -15z m8460 -29 c-16
-16 -30 4 -17 24 11 18 12 19 18 2 4 -9 3 -21 -1 -26z m87 -1329 c-1 -215 -2
-39 -2 393 0 432 1 608 2 392 2 -215 2 -569 0 -785z m-7907 712 c0 -5 -4 -9
-10 -9 -5 0 -10 7 -10 16 0 8 5 12 10 9 6 -3 10 -10 10 -16z m7160 1 c0 -5 -2
-10 -4 -10 -3 0 -8 5 -11 10 -3 6 -1 10 4 10 6 0 11 -4 11 -10z m111 -53 c-13
-13 -26 -3 -16 12 3 6 11 8 17 5 6 -4 6 -10 -1 -17z m-158 -24 c-7 -2 -21 -2
-30 0 -10 3 -4 5 12 5 17 0 24 -2 18 -5z m156 -130 c1 -64 4 -120 7 -125 6
-10 -7293 -16 -7309 -6 -8 5 -6 8 6 8 15 0 17 12 18 98 2 88 3 112 8 135 0 4
1636 7 3635 7 l3633 0 2 -117z m-7282 -195 c-3 -7 -5 -2 -5 12 0 14 2 19 5 13
2 -7 2 -19 0 -25z m-37 12 c0 -5 -4 -10 -10 -10 -5 0 -10 5 -10 10 0 6 5 10
10 10 6 0 10 -4 10 -10z m-10 -296 c0 -8 -5 -12 -10 -9 -6 4 -8 11 -5 16 9 14
15 11 15 -7z m-600 -474 c0 -11 -7 -20 -15 -20 -15 0 -21 21 -8 33 12 13 23 7
23 -13z m8580 -41 c0 -33 -4 -58 -8 -55 -12 7 -14 116 -2 116 6 0 10 -26 10
-61z m-8566 -50 c-3 -5 -10 -7 -15 -3 -5 3 -7 10 -3 15 3 5 10 7 15 3 5 -3 7
-10 3 -15z m76 1 c0 -5 -5 -10 -11 -10 -5 0 -7 5 -4 10 3 6 8 10 11 10 2 0 4
-4 4 -10z m8424 -19 c3 -4 3 -11 0 -14 -8 -8 -34 3 -34 14 0 11 27 12 34 0z
m-8326 -59 c2 -7 -2 -10 -12 -6 -9 3 -16 11 -16 16 0 13 23 5 28 -10z m8257
-20 c0 -18 -20 -15 -23 4 -3 10 1 15 10 12 7 -3 13 -10 13 -16z m-8115 -62 c0
-5 -4 -10 -10 -10 -5 0 -10 5 -10 10 0 6 5 10 10 10 6 0 10 -4 10 -10z m80
-25 c0 -8 -4 -15 -10 -15 -5 0 -10 7 -10 15 0 8 5 15 10 15 6 0 10 -7 10 -15z
m7850 6 c0 -16 -25 -30 -39 -22 -11 7 -9 11 5 20 23 13 34 14 34 2z m-126 -60
c3 -5 -1 -11 -9 -15 -15 -6 -29 7 -18 18 9 9 21 8 27 -3z m-94 -71 c0 -13 -28
-25 -38 -16 -3 4 0 11 8 16 20 13 30 12 30 0z m-7450 -10 c0 -5 -4 -10 -10
-10 -5 0 -10 5 -10 10 0 6 5 10 10 10 6 0 10 -4 10 -10z m27 -42 c-3 -7 -5 -2
-5 12 0 14 2 19 5 13 2 -7 2 -19 0 -25z m-37 -958 c0 -5 -7 -10 -16 -10 -8 0
-12 5 -9 10 3 6 10 10 16 10 5 0 9 -4 9 -10z m7487 -26 c-3 -3 -12 -4 -19 -1
-8 3 -5 6 6 6 11 1 17 -2 13 -5z m33 -54 c0 -13 -11 -13 -30 0 -12 8 -11 10 8
10 12 0 22 -4 22 -10z m-7650 -15 c0 -8 -7 -15 -15 -15 -26 0 -18 20 13 29 1
1 2 -6 2 -14z m7817 -87 c7 -6 10 -14 8 -19 -3 -4 -13 -2 -23 6 -9 8 -26 21
-37 30 -19 14 -18 14 10 4 16 -5 35 -15 42 -21z m83 -38 c0 -5 -2 -10 -4 -10
-3 0 -8 5 -11 10 -3 6 -1 10 4 10 6 0 11 -4 11 -10z m20 -61 c0 -11 -27 -12
-34 0 -3 4 -3 11 0 14 8 8 34 -3 34 -14z m-8180 -58 c0 -6 -4 -13 -10 -16 -5
-3 -10 1 -10 9 0 9 5 16 10 16 6 0 10 -4 10 -9z m8382 -183 c-9 -9 -12 -4 -11
23 0 32 1 33 11 11 8 -17 8 -26 0 -34z m-52 0 c0 -18 -2 -20 -9 -8 -6 8 -7 18
-5 22 9 14 14 9 14 -14z m-8460 -101 c0 -7 -6 -21 -12 -30 -12 -15 -13 -14
-14 13 -1 19 4 30 12 30 8 0 14 -6 14 -13z m8471 1 c-1 -5 -1 -20 -1 -35 l-1
-28 -14 25 c-19 33 -19 52 1 48 8 -2 15 -6 15 -10z m-8564 -90 c-3 -7 -5 -2
-5 12 0 14 2 19 5 13 2 -7 2 -19 0 -25z m-10 -50 c-3 -7 -5 -2 -5 12 0 14 2
19 5 13 2 -7 2 -19 0 -25z m56 -20 c-5 -23 -5 -23 12 -3 14 17 16 17 11 2 -3
-10 -13 -46 -22 -80 -9 -34 -17 -63 -18 -65 -3 -2 1 158 3 166 1 1 5 2 10 2 5
0 7 -10 4 -22z m-33 -60 c0 -21 -3 -29 -10 -22 -5 5 -7 19 -4 32 9 31 14 27
14 -10z m8587 -35 c-3 -10 -5 -4 -5 12 0 17 2 24 5 18 2 -7 2 -21 0 -30z
m-8607 -29 c0 -14 -4 -23 -9 -20 -5 3 -7 15 -4 26 7 28 13 25 13 -6z m39 -111
c-1 -37 -1 -37 -8 -8 -7 28 -5 45 5 45 2 0 3 -17 3 -37z m-2 -135 c-2 -13 -4
-3 -4 22 0 25 2 35 4 23 2 -13 2 -33 0 -45z m0 -165 c-3 -10 -5 -4 -5 12 0 17
2 24 5 18 2 -7 2 -21 0 -30z m8570 -115 c-3 -8 -6 -5 -6 6 -1 11 2 17 5 13 3
-3 4 -12 1 -19z m-8588 -60 c0 -31 -3 -37 -8 -24 -7 18 -3 66 5 66 2 0 4 -19
3 -42z m-9 -98 c0 -21 -15 -27 -25 -10 -7 12 2 30 16 30 5 0 9 -9 9 -20z
m8540 -90 c-17 -33 -20 -20 -7 35 11 46 12 48 15 18 2 -18 -2 -42 -8 -53z m62
-10 c3 -17 1 -33 -4 -36 -4 -3 -8 3 -8 13 0 10 -3 29 -7 42 -4 16 -2 22 4 18
6 -4 13 -21 15 -37z m-8595 -37 c-11 -10 -26 8 -20 23 5 15 7 14 15 -1 6 -9 7
-19 5 -22z m8551 -20 c-5 -25 -28 -28 -28 -4 0 12 6 21 16 21 9 0 14 -7 12
-17z m-58 -67 c0 -7 -14 -27 -30 -45 l-30 -31 6 27 c4 15 17 35 28 45 26 21
26 21 26 4z m-8324 -18 c4 -13 10 -25 14 -28 4 -3 10 -19 13 -37 5 -26 3 -31
-8 -26 -8 3 -15 13 -15 22 0 9 -7 25 -15 35 -17 22 -20 56 -6 56 5 0 13 -10
17 -22z m-533 -85 c-7 -2 -19 -2 -25 0 -7 3 -2 5 12 5 14 0 19 -2 13 -5z m595
-42 c10 -6 9 -10 -7 -14 -21 -5 -36 5 -24 17 8 8 15 7 31 -3z m47 -1 c3 -5 2
-10 -4 -10 -5 0 -13 5 -16 10 -3 6 -2 10 4 10 5 0 13 -4 16 -10z m-1467 -7
c-21 -2 -55 -2 -75 0 -21 2 -4 4 37 4 41 0 58 -2 38 -4z m1332 3 c0 -3 -4 -8
-10 -11 -5 -3 -10 -1 -10 4 0 6 5 11 10 11 6 0 10 -2 10 -4z m-226 -40 c146
-1 266 -5 266 -10 0 -4 -120 -5 -267 -1 -148 4 -342 7 -433 7 -191 -1 -705
-17 -800 -25 -52 -5 -57 -4 -25 3 22 5 65 10 95 10 41 2 49 4 30 9 -14 5 81 8
210 8 129 1 327 5 440 10 123 5 208 4 212 -1 3 -5 124 -10 272 -10z m8426 -36
c0 -5 -9 -10 -21 -10 -11 0 -17 5 -14 10 3 6 13 10 21 10 8 0 14 -4 14 -10z
m-10098 -21 c-23 -4 -47 -11 -52 -14 -6 -3 -15 -3 -21 1 -20 12 14 24 66 23
l50 -1 -43 -9z m10038 -29 c0 -5 -4 -10 -10 -10 -5 0 -10 5 -10 10 0 6 5 10
10 10 6 0 10 -4 10 -10z m-10223 -42 c-3 -7 -5 -2 -5 12 0 14 2 19 5 13 2 -7
2 -19 0 -25z m10183 7 c-7 -8 -19 -15 -27 -15 -10 0 -8 6 8 19 27 22 38 19 19
-4z m-75 -53 c-3 -3 -11 0 -18 7 -9 10 -8 11 6 5 10 -3 15 -9 12 -12z m-45
-22 c0 -5 -7 -10 -16 -10 -8 0 -12 5 -9 10 3 6 10 10 16 10 5 0 9 -4 9 -10z
m-10043 -122 c-3 -7 -5 -2 -5 12 0 14 2 19 5 13 2 -7 2 -19 0 -25z m30 -270
c-1 -57 -3 -11 -3 102 0 113 2 159 3 103 2 -57 2 -149 0 -205z m9853 263 c0
-13 -47 -41 -67 -40 -14 0 -12 3 7 12 14 6 29 17 33 24 9 15 27 17 27 4z m160
-20 c0 -6 -4 -13 -10 -16 -5 -3 -10 1 -10 9 0 9 5 16 10 16 6 0 10 -4 10 -9z
m-100 -11 c0 -5 -10 -10 -22 -10 -19 0 -20 2 -8 10 19 13 30 13 30 0z m-9943
-242 c-1 -46 -3 -9 -3 82 0 91 2 128 3 83 2 -46 2 -120 0 -165z m9883 202 c0
-5 -9 -10 -20 -10 -11 0 -20 5 -20 10 0 6 9 10 20 10 11 0 20 -4 20 -10z m317
-215 c0 -18 -19 -15 -25 3 -2 7 3 12 11 12 7 0 14 -7 14 -15z m-10200 -137
c-2 -13 -4 -3 -4 22 0 25 2 35 4 23 2 -13 2 -33 0 -45z m1505 45 c56 -22 95
-55 130 -110 25 -40 29 -55 30 -122 0 -69 -3 -84 -31 -133 -63 -111 -183 -153
-322 -112 -92 27 -169 131 -169 229 0 51 27 127 62 174 60 82 196 115 300 74z
m8823 -13 c3 -5 -1 -10 -9 -10 -8 0 -18 5 -21 10 -3 6 1 10 9 10 8 0 18 -4 21
-10z m315 -200 c0 -5 -4 -10 -9 -10 -6 0 -13 5 -16 10 -3 6 1 10 9 10 9 0 16
-4 16 -10z m-10613 -1053 c-1 -177 -2 -32 -2 323 0 355 1 500 2 322 2 -177 2
-467 0 -645z m10771 940 c16 -12 16 -27 -1 -27 -11 0 -47 34 -47 45 0 6 32 -6
48 -18z m-10801 -24 c-3 -10 -5 -4 -5 12 0 17 2 24 5 18 2 -7 2 -21 0 -30z
m10843 -35 c0 -19 -2 -20 -10 -8 -13 19 -13 30 0 30 6 0 10 -10 10 -22z
m-10843 -890 c-1 -167 -2 -33 -2 297 0 330 1 466 2 303 2 -163 2 -433 0 -600z
m11003 736 c0 -8 -4 -12 -10 -9 -5 3 -10 13 -10 21 0 8 5 12 10 9 6 -3 10 -13
10 -21z m100 -99 c0 -8 -7 -15 -15 -15 -8 0 -15 7 -15 15 0 8 7 15 15 15 8 0
15 -7 15 -15z m168 -175 c25 -33 27 -40 11 -40 -14 0 -59 47 -59 61 0 19 27 8
48 -21z m202 -146 c0 -2 -7 -4 -15 -4 -8 0 -15 4 -15 10 0 5 7 7 15 4 8 -4 15
-8 15 -10z m-74 -41 c-4 -4 -11 -1 -16 7 -16 25 -11 35 7 17 9 -9 13 -20 9
-24z m-10164 -95 c-9 -9 -12 -7 -12 12 0 19 3 21 12 12 9 -9 9 -15 0 -24z
m355 0 c-3 -8 -6 -5 -6 6 -1 11 2 17 5 13 3 -3 4 -12 1 -19z m9893 -29 c0 -6
-4 -7 -10 -4 -5 3 -10 11 -10 16 0 6 5 7 10 4 6 -3 10 -11 10 -16z m140 -25
c0 -11 -5 -14 -16 -10 -9 3 -18 6 -20 6 -3 0 -2 5 1 10 10 16 35 12 35 -6z
m120 -318 c0 -2 -7 -6 -15 -10 -8 -3 -15 -1 -15 4 0 6 7 10 15 10 8 0 15 -2
15 -4z m60 -95 c0 -6 -4 -13 -10 -16 -5 -3 -10 1 -10 9 0 9 5 16 10 16 6 0 10
-4 10 -9z m-11803 -83 c-2 -13 -4 -3 -4 22 0 25 2 35 4 23 2 -13 2 -33 0 -45z
m11753 41 c0 -24 -23 -21 -28 4 -2 10 3 17 12 17 10 0 16 -9 16 -21z m30 -64
c0 -17 -2 -17 -10 -5 -5 8 -10 24 -10 35 0 17 2 17 10 5 5 -8 10 -24 10 -35z
m20 -78 c0 -5 -4 -5 -10 -2 -5 3 -10 14 -10 23 0 15 2 15 10 2 5 -8 10 -19 10
-23z m30 -132 c14 -19 14 -19 -2 -6 -10 7 -18 18 -18 24 0 6 1 8 3 6 1 -2 9
-13 17 -24z m-11803 -267 c-1 -46 -3 -9 -3 82 0 91 2 128 3 83 2 -46 2 -120 0
-165z m-30 195 c-3 -10 -5 -4 -5 12 0 17 2 24 5 18 2 -7 2 -21 0 -30z m0 -205
c-2 -35 -3 -9 -3 57 0 66 1 94 3 63 2 -32 2 -86 0 -120z m0 -130 c-2 -13 -4
-3 -4 22 0 25 2 35 4 23 2 -13 2 -33 0 -45z m12023 -131 c0 -18 -2 -19 -10 -7
-13 20 -13 43 0 35 6 -3 10 -16 10 -28z m-12023 -249 c-2 -24 -4 -5 -4 42 0
47 2 66 4 43 2 -24 2 -62 0 -85z m12050 -30 c-3 -7 -5 -2 -5 12 0 14 2 19 5
13 2 -7 2 -19 0 -25z m50 -70 c-2 -13 -4 -3 -4 22 0 25 2 35 4 23 2 -13 2 -33
0 -45z m0 -70 c-3 -7 -5 -2 -5 12 0 14 2 19 5 13 2 -7 2 -19 0 -25z m-50 -20
c-3 -8 -6 -5 -6 6 -1 11 2 17 5 13 3 -3 4 -12 1 -19z m-12050 -150 c-2 -13 -4
-3 -4 22 0 25 2 35 4 23 2 -13 2 -33 0 -45z m12068 -70 c-1 -51 -3 -1456 -5
-3123 l-5 -3030 -5 3100 c-3 1705 -3 3110 -1 3123 8 52 17 15 16 -70z m-12068
-250 c-2 -13 -4 -3 -4 22 0 25 2 35 4 23 2 -13 2 -33 0 -45z m30 -1205 c-1
-43 -3 -8 -3 77 0 85 2 120 3 78 2 -43 2 -113 0 -155z m-30 -35 c-2 -24 -4 -5
-4 42 0 47 2 66 4 43 2 -24 2 -62 0 -85z m-20 -175 c-3 -10 -5 -4 -5 12 0 17
2 24 5 18 2 -7 2 -21 0 -30z m98 7 c3 -5 1 -10 -4 -10 -6 0 -11 5 -11 10 0 6
2 10 4 10 3 0 8 -4 11 -10z m293 -45 c8 -8 -140 -3 -173 5 -18 5 9 7 69 4 55
-2 102 -6 104 -9z m72 -25 c0 -5 -2 -10 -4 -10 -3 0 -8 5 -11 10 -3 6 -1 10 4
10 6 0 11 -4 11 -10z m11625 -4524 c3 -51 0 -66 -10 -66 -10 0 -14 16 -13 63
1 104 17 106 23 3z m-11760 54 c3 -5 -1 -10 -9 -10 -9 0 -16 5 -16 10 0 6 4
10 9 10 6 0 13 -4 16 -10z m11815 -14 c0 -3 -4 -8 -10 -11 -5 -3 -10 -1 -10 4
0 6 5 11 10 11 6 0 10 -2 10 -4z m-16910 -36 c9 -16 8 -20 -5 -20 -8 0 -15 9
-15 20 0 11 2 20 5 20 2 0 9 -9 15 -20z m60 -5 c0 -8 -4 -15 -9 -15 -5 0 -11
7 -15 15 -3 9 0 15 9 15 8 0 15 -7 15 -15z m5036 8 c-10 -11 -37 -12 -30 -2 3
5 12 9 21 9 9 0 13 -3 9 -7z m-4881 -13 c-3 -5 -16 -10 -28 -10 -18 0 -19 2
-7 10 20 13 43 13 35 0z m59 -2 c-3 -4 -12 -8 -20 -8 -8 0 -13 4 -10 8 3 5 12
9 20 9 8 0 13 -4 10 -9z m3534 -5 c-641 -2 -1694 -2 -2340 0 -645 1 -120 2
1167 2 1287 0 1815 -1 1173 -2z m1225 0 c-7 -2 -19 -2 -25 0 -7 3 -2 5 12 5
14 0 19 -2 13 -5z m-5028 -51 c-22 -5 -29 3 -21 25 7 17 8 17 22 -2 13 -18 13
-20 -1 -23z m63 10 c2 -7 -6 -12 -17 -12 -21 0 -27 11 -14 24 9 9 26 2 31 -12z
m2541 0 c1370 2 2491 0 2491 -4 0 -5 -21 -8 -47 -8 -1680 -2 -4958 2 -4964 6
-5 3 -7 10 -3 15 4 6 10 6 19 -1 8 -7 762 -9 2504 -8z"/>
<path d="M10255 18437 c-16 -13 -15 -14 13 -9 18 2 29 8 26 13 -7 12 -17 11
-39 -4z"/>
<path d="M7522 16020 c0 -14 2 -19 5 -12 2 6 2 18 0 25 -3 6 -5 1 -5 -13z"/>
<path d="M10804 9442 c-6 -4 -17 -32 -24 -62 -7 -30 -24 -89 -37 -130 -27 -87
-113 -412 -113 -429 0 -7 4 -9 10 -6 5 3 240 6 522 6 297 -1 519 3 527 8 13 8
11 22 -8 93 -13 46 -25 94 -28 108 -3 14 -7 32 -10 40 -9 24 -11 29 -43 150
-16 63 -40 141 -52 173 l-23 57 -355 0 c-195 0 -360 -4 -366 -8z m43 -179 c-3
-10 -5 -2 -5 17 0 19 2 27 5 18 2 -10 2 -26 0 -35z m-54 -3 c-3 -12 -8 -19
-11 -16 -5 6 5 36 12 36 2 0 2 -9 -1 -20z m766 -90 c-1 -32 -2 -33 -9 -10 -4
14 -8 36 -9 50 -1 20 1 22 9 10 5 -8 9 -31 9 -50z m-797 -42 c-7 -7 -12 -8
-12 -2 0 14 12 26 19 19 2 -3 -1 -11 -7 -17z m795 -95 c-3 -10 -5 -4 -5 12 0
17 2 24 5 18 2 -7 2 -21 0 -30z m81 -68 c-3 -3 -9 2 -12 12 -6 14 -5 15 5 6 7
-7 10 -15 7 -18z m-943 -95 c3 -5 -1 -10 -10 -10 -9 0 -13 5 -10 10 3 6 8 10
10 10 2 0 7 -4 10 -10z m88 -7 c-13 -2 -33 -2 -45 0 -13 2 -3 4 22 4 25 0 35
-2 23 -4z m580 0 c-89 -2 -237 -2 -330 0 -92 1 -19 3 162 3 182 0 257 -2 168
-3z m264 1 c-3 -3 -12 -4 -19 -1 -8 3 -5 6 6 6 11 1 17 -2 13 -5z"/>
<path d="M8940 9179 c0 -5 9 -9 20 -9 11 0 20 2 20 4 0 2 -9 6 -20 9 -11 3
-20 1 -20 -4z"/>
<path d="M13179 9179 c-9 -6 -2 -9 23 -9 l38 0 0 -4582 c0 -2520 2 -4584 5
-4586 3 -3 4 2059 3 4583 l-3 4589 -26 7 c-15 3 -33 3 -40 -2z"/>
<path d="M9005 9160 c11 -5 29 -9 40 -9 l20 0 -20 9 c-11 5 -29 9 -40 9 l-20
0 20 -9z"/>
<path d="M13050 9144 l-45 -13 45 5 c45 6 93 24 60 23 -8 -1 -35 -7 -60 -15z"/>
<path d="M9098 9143 c7 -3 16 -2 19 1 4 3 -2 6 -13 5 -11 0 -14 -3 -6 -6z"/>
<path d="M12925 9130 c-19 -8 -19 -9 2 -9 12 -1 25 4 28 9 7 12 -2 12 -30 0z"/>
<path d="M13190 9130 c0 -5 7 -7 15 -4 8 4 15 8 15 10 0 2 -7 4 -15 4 -8 0
-15 -4 -15 -10z"/>
<path d="M9324 9079 c-3 -5 -2 -9 3 -9 4 0 18 -3 31 -6 15 -5 22 -2 22 9 0 16
-46 21 -56 6z"/>
<path d="M12766 9083 c-3 -4 -6 -20 -5 -37 0 -17 3 -24 6 -16 3 8 12 22 20 31
12 14 12 17 -1 22 -8 3 -17 3 -20 0z"/>
<path d="M9288 9033 c7 -3 16 -2 19 1 4 3 -2 6 -13 5 -11 0 -14 -3 -6 -6z"/>
<path d="M9350 8990 c20 -13 50 -13 50 0 0 6 -15 10 -32 10 -25 0 -29 -3 -18
-10z"/>
<path d="M12730 8975 c-10 -12 -10 -15 4 -15 9 0 16 7 16 15 0 8 -2 15 -4 15
-2 0 -9 -7 -16 -15z"/>
<path d="M12665 8814 c-9 -14 -14 -28 -11 -32 3 -3 6 0 6 6 0 7 6 12 14 12 16
0 29 27 17 35 -5 2 -16 -7 -26 -21z"/>
<path d="M12737 8821 c-3 -14 0 -21 9 -21 16 0 18 9 5 28 -6 10 -10 9 -14 -7z"/>
<path d="M9480 8821 c0 -6 5 -13 10 -16 6 -3 10 -17 10 -30 0 -13 5 -27 11
-31 12 -7 7 54 -5 75 -9 13 -26 15 -26 2z"/>
<path d="M12622 8705 c-7 -22 -18 -49 -26 -60 -18 -23 -20 -35 -7 -35 12 0 54
106 48 122 -2 7 -9 -5 -15 -27z"/>
<path d="M9546 8674 c-4 -9 -4 -19 -1 -22 2 -3 7 3 11 12 4 9 4 19 1 22 -2 3
-7 -3 -11 -12z"/>
<path d="M12545 8559 c-9 -17 -14 -36 -12 -42 2 -7 14 7 26 31 12 23 17 42 11
42 -5 0 -17 -14 -25 -31z"/>
<path d="M9621 8560 c-1 -22 42 -93 59 -98 10 -3 8 3 -7 19 -12 13 -28 40 -36
59 -9 19 -16 28 -16 20z"/>
<path d="M12565 8490 c3 -5 10 -10 16 -10 5 0 9 5 9 10 0 6 -7 10 -16 10 -8 0
-12 -4 -9 -10z"/>
<path d="M9604 8479 c-3 -6 -1 -16 5 -22 8 -8 11 -5 11 11 0 24 -5 28 -16 11z"/>
<path d="M12467 8434 c-4 -4 -7 -17 -7 -28 1 -19 1 -20 11 -3 11 19 8 43 -4
31z"/>
<path d="M9631 8414 c0 -11 3 -14 6 -6 3 7 2 16 -1 19 -3 4 -6 -2 -5 -13z"/>
<path d="M9700 8416 c0 -9 5 -16 10 -16 6 0 10 4 10 9 0 6 -4 13 -10 16 -5 3
-10 -1 -10 -9z"/>
<path d="M9740 8377 c0 -10 7 -25 15 -33 8 -9 15 -24 15 -34 0 -13 5 -18 15
-13 14 5 14 8 2 22 -8 9 -22 30 -30 46 -12 21 -16 25 -17 12z"/>
<path d="M12421 8354 c-14 -13 -23 -25 -20 -28 7 -7 51 33 47 42 -1 5 -14 -1
-27 -14z"/>
<path d="M12357 8263 c-12 -11 -8 -33 6 -33 7 0 13 9 14 20 2 20 -8 26 -20 13z"/>
<path d="M9810 8245 c0 -9 5 -15 11 -13 6 2 11 8 11 13 0 5 -5 11 -11 13 -6 2
-11 -4 -11 -13z"/>
<path d="M9860 8196 c0 -9 5 -16 10 -16 6 0 10 4 10 9 0 6 -4 13 -10 16 -5 3
-10 -1 -10 -9z"/>
<path d="M12248 8150 c-28 -27 -46 -50 -41 -50 10 0 103 86 103 95 0 12 -15 1
-62 -45z"/>
<path d="M9905 8162 c6 -4 21 -22 34 -40 13 -18 26 -31 29 -28 3 3 -2 14 -11
24 -10 10 -17 23 -17 29 0 6 -7 14 -16 17 -21 8 -31 7 -19 -2z"/>
<path d="M12267 8103 c-13 -12 -7 -33 8 -33 8 0 15 9 15 20 0 20 -11 26 -23
13z"/>
<path d="M9980 8074 c0 -8 5 -12 10 -9 6 4 8 11 5 16 -9 14 -15 11 -15 -7z"/>
<path d="M12170 8079 c0 -6 -16 -27 -36 -45 -36 -35 -35 -48 1 -16 38 32 57
60 46 67 -6 3 -11 1 -11 -6z"/>
<path d="M9950 8040 c0 -5 5 -10 10 -10 6 0 10 5 10 10 0 6 -4 10 -10 10 -5 0
-10 -4 -10 -10z"/>
<path d="M10020 8040 c0 -5 5 -10 11 -10 5 0 7 5 4 10 -3 6 -8 10 -11 10 -2 0
-4 -4 -4 -10z"/>
<path d="M12215 8040 c-3 -5 3 -10 15 -10 12 0 18 5 15 10 -3 6 -10 10 -15 10
-5 0 -12 -4 -15 -10z"/>
<path d="M10071 7995 c14 -14 26 -19 28 -13 2 6 -4 17 -15 25 -30 22 -38 15
-13 -12z"/>
<path d="M10110 7950 c0 -5 7 -10 15 -10 8 0 15 5 15 10 0 6 -7 10 -15 10 -8
0 -15 -4 -15 -10z"/>
<path d="M12045 7940 c-3 -5 -1 -10 4 -10 6 0 11 5 11 10 0 6 -2 10 -4 10 -3
0 -8 -4 -11 -10z"/>
<path d="M10167 7913 c-12 -12 -7 -22 8 -17 8 4 15 10 15 15 0 11 -14 12 -23
2z"/>
<path d="M10115 7880 c-3 -5 1 -10 9 -10 8 0 18 5 21 10 3 6 -1 10 -9 10 -8 0
-18 -4 -21 -10z"/>
<path d="M11940 7875 c-7 -8 -21 -15 -31 -15 -10 0 -21 -4 -24 -10 -9 -14 7
-12 49 5 20 9 34 20 31 25 -8 13 -10 13 -25 -5z"/>
<path d="M10250 7849 c11 -20 60 -27 60 -9 0 6 -1 10 -3 10 -1 0 -17 4 -35 9
-30 9 -31 8 -22 -10z"/>
<path d="M11763 7780 c-24 -10 -43 -24 -43 -29 0 -9 83 29 99 44 10 11 -16 4
-56 -15z"/>
<path d="M10245 7770 c3 -5 10 -10 16 -10 5 0 9 5 9 10 0 6 -7 10 -16 10 -8 0
-12 -4 -9 -10z"/>
<path d="M10396 7764 c-3 -8 -2 -12 4 -9 17 11 52 -6 46 -21 -4 -11 1 -13 20
-10 42 8 40 14 -10 36 -57 24 -52 24 -60 4z"/>
<path d="M11690 7740 c-8 -5 -12 -11 -9 -14 2 -3 11 -1 19 4 8 5 12 11 9 14
-2 3 -11 1 -19 -4z"/>
<path d="M11753 7712 c-57 -22 -55 -35 2 -15 25 8 45 19 45 24 0 5 -1 9 -2 8
-2 0 -22 -8 -45 -17z"/>
<path d="M10240 7710 c0 -5 4 -10 9 -10 6 0 13 5 16 10 3 6 -1 10 -9 10 -9 0
-16 -4 -16 -10z"/>
<path d="M10400 7710 c0 -5 4 -10 9 -10 6 0 13 5 16 10 3 6 -1 10 -9 10 -9 0
-16 -4 -16 -10z"/>
<path d="M10535 7710 c3 -5 13 -10 21 -10 8 0 12 5 9 10 -3 6 -13 10 -21 10
-8 0 -12 -4 -9 -10z"/>
<path d="M11600 7710 c-12 -8 -11 -10 7 -10 12 0 25 5 28 10 8 13 -15 13 -35
0z"/>
<path d="M10483 7693 c9 -2 23 -2 30 0 6 3 -1 5 -18 5 -16 0 -22 -2 -12 -5z"/>
<path d="M11820 7690 c0 -5 5 -10 10 -10 6 0 10 5 10 10 0 6 -4 10 -10 10 -5
0 -10 -4 -10 -10z"/>
<path d="M10730 7650 c8 -5 24 -9 35 -9 l20 0 -20 9 c-11 5 -27 9 -35 9 -13 1
-13 0 0 -9z"/>
<path d="M11410 7641 c-19 -4 -30 -9 -25 -13 6 -3 26 -3 45 1 44 9 27 19 -20
12z"/>
<path d="M11208 7623 c7 -3 16 -2 19 1 4 3 -2 6 -13 5 -11 0 -14 -3 -6 -6z"/>
<path d="M10895 7611 c11 -5 38 -5 60 -1 38 7 36 8 -20 8 -40 1 -53 -2 -40 -7z"/>
<path d="M11258 7613 c7 -3 16 -2 19 1 4 3 -2 6 -13 5 -11 0 -14 -3 -6 -6z"/>
<path d="M11360 7580 c0 -5 12 -10 26 -10 14 0 23 4 19 10 -3 6 -15 10 -26 10
-10 0 -19 -4 -19 -10z"/>
<path d="M11194 7573 c4 -5 27 -8 51 -8 24 0 41 3 38 8 -2 4 -25 7 -50 7 -26
0 -43 -3 -39 -7z"/>
<path d="M10848 7553 c6 -2 18 -2 25 0 6 3 1 5 -13 5 -14 0 -19 -2 -12 -5z"/>
<path d="M11338 7553 c7 -3 16 -2 19 1 4 3 -2 6 -13 5 -11 0 -14 -3 -6 -6z"/>
<path d="M11225 7530 c27 -12 43 -12 25 0 -8 5 -22 9 -30 9 -10 0 -8 -3 5 -9z"/>
<path d="M16791 7065 c0 -5 6 -35 14 -65 11 -44 13 -49 14 -24 1 18 -6 47 -14
65 -8 19 -14 30 -14 24z"/>
<path d="M10886 6391 c-4 -7 -5 -15 -2 -18 9 -9 19 4 14 18 -4 11 -6 11 -12 0z"/>
<path d="M12138 6313 c7 -3 16 -2 19 1 4 3 -2 6 -13 5 -11 0 -14 -3 -6 -6z"/>
<path d="M12165 6300 c-3 -5 -1 -10 4 -10 6 0 11 5 11 10 0 6 -2 10 -4 10 -3
0 -8 -4 -11 -10z"/>
<path d="M12290 6230 c8 -5 22 -10 30 -10 13 0 13 1 0 10 -8 5 -22 10 -30 10
-13 0 -13 -1 0 -10z"/>
<path d="M12365 6190 c13 -15 22 -17 29 -10 12 12 -8 30 -33 30 -11 0 -10 -5
4 -20z"/>
<path d="M12460 6199 c0 -5 5 -7 10 -4 6 3 10 8 10 11 0 2 -4 4 -10 4 -5 0
-10 -5 -10 -11z"/>
<path d="M9160 6169 c0 -5 5 -7 10 -4 6 3 10 8 10 11 0 2 -4 4 -10 4 -5 0 -10
-5 -10 -11z"/>
<path d="M12427 6149 c12 -12 25 -20 28 -17 3 3 -7 13 -22 23 l-28 17 22 -23z"/>
<path d="M9256 6101 c-4 -5 -2 -12 3 -15 5 -4 12 -2 15 3 4 5 2 12 -3 15 -5 4
-12 2 -15 -3z"/>
<path d="M12510 6070 c0 -5 9 -14 21 -20 19 -11 20 -10 9 9 -11 22 -30 29 -30
11z"/>
<path d="M10980 6025 c1 -26 2 -28 11 -12 8 14 8 22 0 30 -8 8 -11 3 -11 -18z"/>
<path d="M12580 5996 c0 -7 7 -19 15 -26 12 -10 15 -9 15 8 0 11 -7 22 -15 26
-9 3 -15 0 -15 -8z"/>
<path d="M12626 5905 c4 -8 8 -15 10 -15 2 0 4 7 4 15 0 8 -4 15 -10 15 -5 0
-7 -7 -4 -15z"/>
<path d="M12672 5865 c0 -16 4 -41 8 -55 7 -23 8 -22 8 10 0 19 -3 44 -8 55
-7 17 -9 15 -8 -10z"/>
<path d="M12681 5568 c0 -28 2 -30 9 -13 12 28 12 45 0 45 -5 0 -10 -15 -9
-32z"/>
<path d="M12681 5514 c0 -11 3 -14 6 -6 3 7 2 16 -1 19 -3 4 -6 -2 -5 -13z"/>
<path d="M12667 5470 c-3 -11 -1 -23 4 -26 5 -3 9 6 9 20 0 31 -6 34 -13 6z"/>
<path d="M12627 5433 c-4 -3 -7 -16 -6 -27 0 -19 1 -19 10 3 10 24 8 36 -4 24z"/>
<path d="M9920 5380 c0 -5 5 -10 10 -10 6 0 10 5 10 10 0 6 -4 10 -10 10 -5 0
-10 -4 -10 -10z"/>
<path d="M12548 5308 c-10 -10 -14 -18 -9 -18 10 0 36 29 30 34 -2 1 -12 -6
-21 -16z"/>
<path d="M10094 5196 c-9 -15 -14 -29 -12 -32 3 -2 13 7 22 22 10 14 15 28 13
31 -3 2 -13 -7 -23 -21z"/>
<path d="M12430 5190 c0 -5 5 -10 10 -10 6 0 10 5 10 10 0 6 -4 10 -10 10 -5
0 -10 -4 -10 -10z"/>
<path d="M12378 5152 c-10 -2 -18 -8 -18 -13 0 -13 27 -11 35 2 9 13 4 16 -17
11z"/>
<path d="M12306 5111 c-4 -7 -5 -15 -2 -18 9 -9 19 4 14 18 -4 11 -6 11 -12 0z"/>
<path d="M9950 5040 c0 -5 5 -10 10 -10 6 0 10 5 10 10 0 6 -4 10 -10 10 -5 0
-10 -4 -10 -10z"/>
<path d="M9920 5010 c0 -5 5 -10 10 -10 6 0 10 5 10 10 0 6 -4 10 -10 10 -5 0
-10 -4 -10 -10z"/>
<path d="M6135 4965 c-69 -12 -125 -30 -135 -43 -3 -4 -25 -17 -50 -28 -61
-29 -158 -106 -152 -122 2 -6 -3 -12 -11 -12 -8 0 -26 -19 -40 -42 -14 -24
-34 -52 -44 -63 -10 -11 -31 -57 -46 -101 -21 -66 -27 -102 -28 -190 -2 -144
6 -190 50 -276 72 -144 176 -247 310 -310 93 -43 102 -45 246 -54 73 -4 113
-2 150 9 84 25 169 60 189 79 11 10 23 18 28 18 4 0 20 12 36 28 15 15 39 36
53 47 31 25 99 114 99 130 0 7 6 18 14 24 7 6 26 46 42 89 26 70 29 88 29 207
0 120 -2 135 -29 199 -35 85 -103 183 -179 258 -73 73 -194 133 -311 154 -94
16 -125 16 -221 -1z"/>
<path d="M11970 4970 c-13 -8 -13 -10 2 -10 9 0 20 5 23 10 8 13 -5 13 -25 0z"/>
<path d="M12298 4963 c7 -3 16 -2 19 1 4 3 -2 6 -13 5 -11 0 -14 -3 -6 -6z"/>
<path d="M9850 4945 c0 -8 7 -15 15 -15 8 0 15 7 15 15 0 8 -7 15 -15 15 -8 0
-15 -7 -15 -15z"/>
<path d="M9788 4923 c7 -3 16 -2 19 1 4 3 -2 6 -13 5 -11 0 -14 -3 -6 -6z"/>
<path d="M11890 4915 c0 -8 7 -15 15 -15 8 0 15 7 15 15 0 8 -7 15 -15 15 -8
0 -15 -7 -15 -15z"/>
<path d="M9820 4895 c0 -8 5 -15 10 -15 6 0 10 7 10 15 0 8 -4 15 -10 15 -5 0
-10 -7 -10 -15z"/>
<path d="M9790 4855 c-7 -8 -8 -15 -2 -15 5 0 15 7 22 15 7 8 8 15 2 15 -5 0
-15 -7 -22 -15z"/>
<path d="M11945 4860 c3 -5 10 -10 16 -10 5 0 9 5 9 10 0 6 -7 10 -16 10 -8 0
-12 -4 -9 -10z"/>
<path d="M11230 4830 c0 -5 5 -10 11 -10 5 0 7 5 4 10 -3 6 -8 10 -11 10 -2 0
-4 -4 -4 -10z"/>
<path d="M9756 4809 c-23 -27 -15 -35 9 -9 10 11 16 22 14 25 -3 2 -13 -5 -23
-16z"/>
<path d="M12000 4790 c0 -5 7 -10 16 -10 8 0 12 5 9 10 -3 6 -10 10 -16 10 -5
0 -9 -4 -9 -10z"/>
<path d="M12090 4790 c-12 -8 -11 -10 8 -10 12 0 22 5 22 10 0 13 -11 13 -30
0z"/>
<path d="M9697 4774 c-3 -3 -3 -12 0 -20 4 -11 9 -12 19 -3 8 6 11 15 8 20 -6
10 -18 12 -27 3z"/>
<path d="M9614 4738 l-17 -33 27 28 c28 30 31 37 16 37 -5 0 -17 -15 -26 -32z"/>
<path d="M12050 4764 c0 -3 7 -12 15 -20 13 -14 15 -13 15 5 0 12 -6 21 -15
21 -8 0 -15 -3 -15 -6z"/>
<path d="M9668 4721 c-7 -12 -18 -21 -25 -21 -7 0 -13 -4 -13 -10 0 -5 4 -10
8 -10 13 0 56 49 49 56 -3 3 -12 -3 -19 -15z"/>
<path d="M11370 4684 c0 -8 43 -43 53 -44 4 0 7 5 7 10 0 6 -6 10 -14 10 -8 0
-16 7 -20 15 -5 14 -26 22 -26 9z"/>
<path d="M9610 4655 c-7 -9 -10 -18 -7 -21 3 -3 10 4 17 15 13 25 8 27 -10 6z"/>
<path d="M12141 4659 c-1 -17 45 -46 56 -36 3 4 -1 7 -9 7 -9 0 -23 10 -31 23
-12 16 -16 18 -16 6z"/>
<path d="M11345 4650 c3 -5 8 -10 11 -10 2 0 4 5 4 10 0 6 -5 10 -11 10 -5 0
-7 -4 -4 -10z"/>
<path d="M9470 4600 c0 -5 4 -10 9 -10 6 0 13 5 16 10 3 6 -1 10 -9 10 -9 0
-16 -4 -16 -10z"/>
<path d="M12210 4601 c0 -5 7 -11 15 -15 9 -3 15 0 15 9 0 8 -7 15 -15 15 -8
0 -15 -4 -15 -9z"/>
<path d="M12300 4600 c0 -5 5 -10 11 -10 5 0 7 5 4 10 -3 6 -8 10 -11 10 -2 0
-4 -4 -4 -10z"/>
<path d="M11446 4577 c5 -14 44 -21 44 -7 0 8 -24 20 -41 20 -4 0 -6 -6 -3
-13z"/>
<path d="M12265 4540 c3 -5 8 -10 11 -10 2 0 4 5 4 10 0 6 -5 10 -11 10 -5 0
-7 -4 -4 -10z"/>
<path d="M9473 4523 c-4 -10 -17 -32 -31 -50 -13 -18 -22 -37 -20 -43 2 -6 15
8 28 30 14 23 34 50 44 61 18 17 18 19 3 19 -10 0 -21 -8 -24 -17z"/>
<path d="M11550 4501 c0 -11 31 -24 39 -16 3 3 -1 10 -9 15 -19 12 -30 12 -30
1z"/>
<path d="M11500 4489 c0 -5 5 -7 10 -4 6 3 10 8 10 11 0 2 -4 4 -10 4 -5 0
-10 -5 -10 -11z"/>
<path d="M9310 4470 c0 -5 7 -10 15 -10 8 0 15 5 15 10 0 6 -7 10 -15 10 -8 0
-15 -4 -15 -10z"/>
<path d="M12425 4470 c-3 -5 1 -10 10 -10 9 0 13 5 10 10 -3 6 -8 10 -10 10
-2 0 -7 -4 -10 -10z"/>
<path d="M12372 4438 c6 -18 28 -21 28 -4 0 9 -7 16 -16 16 -9 0 -14 -5 -12
-12z"/>
<path d="M11617 4426 c-3 -8 1 -17 9 -20 8 -3 14 1 14 9 0 20 -17 28 -23 11z"/>
<path d="M9380 4404 c0 -8 5 -12 10 -9 6 3 10 10 10 16 0 5 -4 9 -10 9 -5 0
-10 -7 -10 -16z"/>
<path d="M9310 4400 c0 -5 5 -10 10 -10 6 0 10 5 10 10 0 6 -4 10 -10 10 -5 0
-10 -4 -10 -10z"/>
<path d="M9345 4370 c3 -5 8 -10 11 -10 2 0 4 5 4 10 0 6 -5 10 -11 10 -5 0
-7 -4 -4 -10z"/>
<path d="M12460 4340 c0 -5 5 -10 11 -10 5 0 7 5 4 10 -3 6 -8 10 -11 10 -2 0
-4 -4 -4 -10z"/>
<path d="M9297 4312 c-29 -30 -33 -42 -17 -42 6 0 14 8 17 18 4 9 16 25 28 34
11 10 15 17 9 18 -5 0 -22 -13 -37 -28z"/>
<path d="M11730 4330 c0 -5 5 -10 11 -10 5 0 7 5 4 10 -3 6 -8 10 -11 10 -2 0
-4 -4 -4 -10z"/>
<path d="M12523 4278 c2 -7 10 -13 17 -13 7 0 15 6 18 13 2 7 -5 12 -18 12
-13 0 -20 -5 -17 -12z"/>
<path d="M9217 4233 c-10 -9 -9 -23 2 -23 5 0 11 7 15 15 5 15 -5 20 -17 8z"/>
<path d="M12590 4230 c-13 -9 -13 -11 0 -20 10 -6 16 -6 18 0 7 20 -3 30 -18
20z"/>
<path d="M11866 4196 c3 -9 11 -16 16 -16 13 0 5 23 -10 28 -7 2 -10 -2 -6
-12z"/>
<path d="M9180 4185 c0 -21 -30 -32 -40 -14 -5 7 -12 10 -16 7 -10 -11 23 -39
38 -33 20 8 40 43 28 50 -6 3 -10 -1 -10 -10z"/>
<path d="M11817 4184 c-8 -8 1 -24 14 -24 5 0 9 7 9 15 0 15 -12 20 -23 9z"/>
<path d="M10995 4150 c-3 -5 -1 -10 4 -10 6 0 11 5 11 10 0 6 -2 10 -4 10 -3
0 -8 -4 -11 -10z"/>
<path d="M12778 4123 c7 -3 16 -2 19 1 4 3 -2 6 -13 5 -11 0 -14 -3 -6 -6z"/>
<path d="M9120 4109 c0 -5 5 -7 10 -4 6 3 10 8 10 11 0 2 -4 4 -10 4 -5 0 -10
-5 -10 -11z"/>
<path d="M11010 4110 c0 -5 5 -10 11 -10 5 0 7 5 4 10 -3 6 -8 10 -11 10 -2 0
-4 -4 -4 -10z"/>
<path d="M11930 4110 c0 -5 5 -10 11 -10 5 0 7 5 4 10 -3 6 -8 10 -11 10 -2 0
-4 -4 -4 -10z"/>
<path d="M10961 4084 c0 -11 3 -14 6 -6 3 7 2 16 -1 19 -3 4 -6 -2 -5 -13z"/>
<path d="M12714 4086 c22 -18 56 -21 56 -6 0 6 -6 10 -12 10 -7 0 -24 3 -38 6
-24 5 -24 5 -6 -10z"/>
<path d="M11997 4030 c-17 -20 -9 -28 9 -10 7 7 19 8 37 1 17 -7 28 -7 32 -1
4 6 -4 10 -17 10 -13 0 -28 4 -34 10 -6 6 -16 3 -27 -10z"/>
<path d="M10950 4030 c0 -5 5 -10 10 -10 6 0 10 5 10 10 0 6 -4 10 -10 10 -5
0 -10 -4 -10 -10z"/>
<path d="M12720 4028 c-14 -6 -20 -12 -13 -15 7 -2 20 0 31 6 10 5 29 7 42 4
16 -4 21 -3 16 5 -9 15 -42 14 -76 0z"/>
<path d="M9102 4022 c-21 -6 1186 -5 1568 1 91 1 -220 3 -690 4 -470 0 -865
-2 -878 -5z"/>
<path d="M10875 4020 c22 -5 44 -4 50 1 5 5 -11 9 -40 8 l-50 -1 40 -8z"/>
<path d="M11000 4016 c0 -9 5 -16 10 -16 6 0 10 4 10 9 0 6 -4 13 -10 16 -5 3
-10 -1 -10 -9z"/>
<path d="M12122 4025 c7 -8 527 -10 535 -2 3 4 -117 7 -267 7 -150 0 -271 -2
-268 -5z"/>
<path d="M16967 73 c-34 -33 -62 -33 2313 -33 2313 0 2320 0 2320 20 0 20 -7
20 -2313 20 -1273 0 -2317 -3 -2320 -7z"/>
</g>
</svg>
